<svg width="24" height="24" viewBox="0 0 24 24" fill="none" xmlns="http://www.w3.org/2000/svg">
<g clip-path="url(#clip0_118_4987)">
<path d="M15.6561 12.5336C15.2309 12.1084 14.6639 11.8742 14.0596 11.8742C13.4552 11.8742 12.8883 12.1084 12.463 12.5337L12.1424 12.8544C12.0653 12.9315 11.9617 12.9739 11.8506 12.9739C11.7395 12.9739 11.6359 12.9315 11.5588 12.8545L9.34958 10.6453C9.19143 10.4871 9.19143 10.2198 9.3494 10.0618L9.67058 9.74087C10.5508 8.86051 10.5508 7.4282 9.67054 6.54794L9.02868 5.90622C8.60348 5.48097 8.03648 5.24683 7.43221 5.24683C6.82794 5.24683 6.26099 5.48101 5.83612 5.90598L5.74855 5.99345C4.73413 7.00806 4.36579 8.51847 4.71144 10.2466C5.03638 11.8713 5.96512 13.516 7.32655 14.8777C9.04237 16.5932 11.2281 17.6176 13.1733 17.6177H13.1736C14.4005 17.6177 15.4508 17.2159 16.2117 16.4551L16.2981 16.3685C17.1783 15.4883 17.1783 14.056 16.2981 13.1756L15.6561 12.5336ZM15.3031 15.3745L15.2167 15.4612C14.7259 15.952 14.0195 16.2114 13.1736 16.2114C13.1736 16.2114 13.1734 16.2114 13.1733 16.2114C11.5928 16.2113 9.77877 15.3409 8.32087 13.8832C7.15358 12.7158 6.36144 11.3263 6.09032 9.97075C5.83987 8.71848 6.07166 7.65911 6.74268 6.988L6.83024 6.90053C6.9898 6.74092 7.2036 6.65303 7.43221 6.65303C7.66087 6.65303 7.87466 6.74092 8.03432 6.90058L8.67618 7.54229C9.00815 7.87426 9.00815 8.41445 8.67632 8.74637L8.35513 9.06737C7.64615 9.7765 7.64615 10.9304 8.35522 11.6396L10.5645 13.8488C10.9071 14.1915 11.3638 14.3802 11.8506 14.3802C12.3373 14.3802 12.7941 14.1915 13.1369 13.8488L13.4577 13.528C13.6172 13.3683 13.831 13.2805 14.0597 13.2805C14.2883 13.2805 14.5021 13.3683 14.6617 13.528L15.3037 14.1699C15.6356 14.5019 15.6356 15.0421 15.3031 15.3745Z" fill="#F5F5F5"/>
<path d="M11.7275 9.78271C12.11 9.78271 12.4211 10.0938 12.4211 10.4762C12.4211 10.8645 12.736 11.1794 13.1243 11.1794C13.5126 11.1794 13.8274 10.8645 13.8274 10.4762C13.8274 9.31842 12.8854 8.37646 11.7275 8.37646C11.3392 8.37646 11.0244 8.69128 11.0244 9.07959C11.0244 9.4679 11.3392 9.78271 11.7275 9.78271Z" fill="#F5F5F5"/>
<path d="M11.7275 6.9893C12.6589 6.9893 13.5345 7.35202 14.1931 8.01062C14.8517 8.66926 15.2144 9.54493 15.2143 10.4763C15.2143 10.8646 15.5291 11.1795 15.9174 11.1795H15.9175C16.3057 11.1795 16.6206 10.8646 16.6206 10.4763C16.6206 9.16932 16.1117 7.94045 15.1875 7.01626C14.2633 6.09202 13.0345 5.58301 11.7275 5.58301C11.3392 5.58301 11.0244 5.89782 11.0244 6.28613C11.0244 6.67445 11.3392 6.9893 11.7275 6.9893Z" fill="#F5F5F5"/>
<path d="M11.7275 2.78967C11.3392 2.78967 11.0244 3.10449 11.0244 3.4928C11.0244 3.88111 11.3392 4.19592 11.7275 4.19592C15.1905 4.19592 18.0078 7.0133 18.0078 10.4762C18.0078 10.8645 18.3226 11.1794 18.7109 11.1794C19.0992 11.1794 19.4141 10.8645 19.4141 10.4762C19.414 6.23785 15.9658 2.78967 11.7275 2.78967Z" fill="#F5F5F5"/>
<path d="M20.6614 2.39855C19.1147 0.851812 17.0659 0 14.8925 0H9.10802C6.93466 0 4.88585 0.851812 3.33907 2.39855C1.79224 3.94533 0.94043 5.99405 0.94043 8.16741V12.24C0.94043 13.9065 1.44466 15.5126 2.39862 16.8844C3.23651 18.0893 4.36479 19.038 5.68179 19.65V22.3266C5.68179 23.9194 6.68665 24 6.88807 24C7.33048 24 7.76946 23.747 8.19284 23.2478L10.6016 20.4074H14.8925C17.066 20.4074 19.1148 19.5556 20.6615 18.0089C22.2082 16.4621 23.06 14.4134 23.06 12.24V8.16745C23.06 5.99405 22.2082 3.94528 20.6614 2.39855ZM21.6537 12.24C21.6537 15.9681 18.6206 19.0011 14.8925 19.0011H10.276C10.0694 19.0011 9.8733 19.092 9.73971 19.2495L7.12038 22.3382C7.10951 22.351 7.09887 22.3633 7.08855 22.3749C7.08823 22.3594 7.08804 22.3433 7.08804 22.3266V19.187C7.08804 18.8984 6.9117 18.6391 6.64324 18.5331C4.07332 17.5178 2.34668 14.9888 2.34668 12.2399V8.16736C2.34668 4.4393 5.37977 1.40625 9.10802 1.40625H14.8925C18.6206 1.40625 21.6537 4.4393 21.6537 8.16741V12.24Z" fill="#F5F5F5"/>
</g>
<defs>
<clipPath id="clip0_118_4987">
<rect width="24" height="24" fill="white"/>
</clipPath>
</defs>
</svg>
