<svg width="24" height="24" viewBox="0 0 24 24" fill="none" xmlns="http://www.w3.org/2000/svg">
<g clip-path="url(#clip0_118_4994)">
<path d="M17.5034 0H6.49657C2.9143 0 0 2.9143 0 6.49657V17.5036C0 21.0857 2.9143 24 6.49657 24H17.5036C21.0857 24 24 21.0857 24 17.5036V6.49657C24 2.9143 21.0857 0 17.5034 0V0ZM22.593 17.5036C22.593 20.3098 20.3098 22.593 17.5034 22.593H6.49657C3.69012 22.593 1.40698 20.3098 1.40698 17.5036V6.49657C1.40698 3.69012 3.69012 1.40698 6.49657 1.40698H17.5036C20.3098 1.40698 22.593 3.69012 22.593 6.49657V17.5036Z" fill="#F5F5F5"/>
<path d="M11.9998 5.43762C8.38128 5.43762 5.4375 8.3814 5.4375 11.9999C5.4375 15.6185 8.38128 18.5622 11.9998 18.5622C15.6183 18.5622 18.5621 15.6185 18.5621 11.9999C18.5621 8.3814 15.6183 5.43762 11.9998 5.43762ZM11.9998 17.1553C9.15728 17.1553 6.84448 14.8426 6.84448 11.9999C6.84448 9.1574 9.15728 6.8446 11.9998 6.8446C14.8425 6.8446 17.1551 9.1574 17.1551 11.9999C17.1551 14.8426 14.8425 17.1553 11.9998 17.1553Z" fill="#F5F5F5"/>
<path d="M18.7194 3.10706C17.65 3.10706 16.7803 3.97699 16.7803 5.04614C16.7803 6.11547 17.65 6.98541 18.7194 6.98541C19.7887 6.98541 20.6586 6.11547 20.6586 5.04614C20.6586 3.9768 19.7887 3.10706 18.7194 3.10706ZM18.7194 5.57824C18.426 5.57824 18.1873 5.33947 18.1873 5.04614C18.1873 4.75262 18.426 4.51404 18.7194 4.51404C19.0129 4.51404 19.2516 4.75262 19.2516 5.04614C19.2516 5.33947 19.0129 5.57824 18.7194 5.57824Z" fill="#F5F5F5"/>
</g>
<defs>
<clipPath id="clip0_118_4994">
<rect width="24" height="24" fill="white"/>
</clipPath>
</defs>
</svg>
